<?xml version="1.0" encoding="UTF-8" standalone="no"?>
<!-- Created with Inkscape (http://www.inkscape.org/) -->

<svg
   version="1.1"
   id="svg64"
   xml:space="preserve"
   width="671.66669"
   height="216.93468"
   viewBox="0 0 671.66669 216.93468"
   xmlns="http://www.w3.org/2000/svg"
   xmlns:svg="http://www.w3.org/2000/svg"><defs
     id="defs68"><clipPath
       clipPathUnits="userSpaceOnUse"
       id="clipPath78"><path
         d="M 0,162.701 H 503.75 V 0 H 0 Z"
         id="path76" /></clipPath><clipPath
       clipPathUnits="userSpaceOnUse"
       id="clipPath86"><path
         d="M 0,162.701 H 503.75 V 0 H 0 Z"
         id="path84" /></clipPath></defs><g
     id="g70"
     transform="matrix(1.3333333,0,0,-1.3333333,0,216.93467)"><g
       id="g72"><g
         id="g74"
         clip-path="url(#clipPath78)"><g
           id="g80"><g
             id="g82" /><g
             id="g92"><g
               clip-path="url(#clipPath86)"
               id="g90"><path
                 d="M 0,0 H 503.75 V 162.7 H 0 Z"
                 style="fill:#3199cc;fill-opacity:1;fill-rule:nonzero;stroke:none"
                 id="path88" /></g></g></g><g
           id="g94"
           transform="translate(172.2649,105.4834)"><path
             d="m 0,0 c 1.583,-0.397 2.929,-0.929 4.039,-1.592 1.112,-0.664 1.968,-1.431 2.572,-2.302 0.602,-0.872 0.903,-1.762 0.903,-2.672 0,-1.25 -0.451,-2.292 -1.355,-3.127 -0.905,-0.834 -2.073,-1.251 -3.504,-1.251 -0.716,0 -1.346,0.105 -1.893,0.314 -0.546,0.207 -1.121,0.435 -1.722,0.682 -0.602,0.246 -1.253,0.473 -1.949,0.681 -0.697,0.209 -1.535,0.314 -2.514,0.314 -0.981,0 -2.073,-0.21 -3.279,-0.626 -1.205,-0.417 -2.324,-1.089 -3.361,-2.018 -1.036,-0.928 -1.903,-2.132 -2.599,-3.61 -0.697,-1.478 -1.045,-3.259 -1.045,-5.344 0,-2.272 0.376,-4.169 1.13,-5.683 0.753,-1.518 1.667,-2.729 2.74,-3.64 1.074,-0.908 2.212,-1.563 3.419,-1.96 1.205,-0.399 2.259,-0.597 3.164,-0.597 0.828,0 1.619,0.151 2.372,0.453 0.754,0.303 1.489,0.626 2.204,0.967 0.716,0.341 1.431,0.664 2.147,0.967 0.716,0.302 1.469,0.455 2.26,0.455 1.618,0 2.815,-0.494 3.588,-1.478 0.772,-0.987 1.158,-2.103 1.158,-3.355 0,-0.605 -0.264,-1.334 -0.792,-2.189 -0.526,-0.852 -1.355,-1.675 -2.485,-2.472 -1.13,-0.795 -2.561,-1.468 -4.293,-2.017 -1.734,-0.55 -3.787,-0.825 -6.159,-0.825 -2.864,0 -5.565,0.521 -8.108,1.563 -2.543,1.042 -4.765,2.482 -6.667,4.321 -1.903,1.837 -3.41,4.007 -4.52,6.508 -1.112,2.502 -1.667,5.192 -1.667,8.073 0,3.106 0.47,5.997 1.413,8.67 0.94,2.671 2.306,5.001 4.096,6.991 1.788,1.991 3.983,3.554 6.582,4.691 2.599,1.137 5.555,1.704 8.871,1.704 C -3.334,0.596 -1.583,0.397 0,0 m 37.967,-0.682 c 2.599,-0.93 4.897,-2.285 6.894,-4.066 1.995,-1.78 3.596,-3.998 4.802,-6.649 1.205,-2.655 1.809,-5.686 1.809,-9.096 0,-3.79 -0.68,-7.042 -2.035,-9.749 -1.355,-2.711 -3.089,-4.929 -5.198,-6.652 -2.11,-1.726 -4.435,-2.993 -6.978,-3.81 -2.541,-0.814 -5,-1.221 -7.373,-1.221 -2.336,0 -4.737,0.436 -7.204,1.307 -2.468,0.872 -4.708,2.188 -6.723,3.951 -2.015,1.763 -3.673,3.988 -4.972,6.681 -1.3,2.689 -1.948,5.853 -1.948,9.493 0,3.372 0.572,6.376 1.722,9.011 1.149,2.632 2.684,4.848 4.605,6.649 1.922,1.801 4.133,3.175 6.638,4.122 2.505,0.946 5.133,1.421 7.882,1.421 2.788,0 5.481,-0.463 8.079,-1.392 M 25.285,-9.919 c -1.302,-0.646 -2.385,-1.498 -3.25,-2.559 -0.867,-1.061 -1.507,-2.294 -1.921,-3.696 -0.415,-1.402 -0.622,-2.841 -0.622,-4.319 0,-1.895 0.274,-3.572 0.82,-5.032 0.546,-1.458 1.289,-2.691 2.231,-3.694 0.941,-1.005 2.044,-1.763 3.306,-2.274 1.261,-0.512 2.608,-0.767 4.039,-0.767 1.544,0 2.995,0.292 4.35,0.881 1.358,0.586 2.543,1.411 3.56,2.472 1.018,1.06 1.817,2.312 2.402,3.752 0.583,1.439 0.875,2.993 0.875,4.662 0,1.478 -0.226,2.907 -0.678,4.292 -0.453,1.382 -1.139,2.615 -2.062,3.694 -0.923,1.081 -2.091,1.942 -3.503,2.588 -1.412,0.643 -3.061,0.966 -4.944,0.966 -1.77,0 -3.304,-0.323 -4.603,-0.966 m 68.844,8.726 c 0.903,-0.323 1.6,-0.816 2.09,-1.478 0.489,-0.664 0.828,-1.489 1.017,-2.474 0.187,-0.986 0.283,-2.123 0.283,-3.411 v -25.126 c 0,-2.501 -0.396,-4.349 -1.187,-5.544 -0.791,-1.193 -1.94,-1.789 -3.447,-1.789 -1.807,0 -3.089,0.605 -3.843,1.819 -0.752,1.213 -1.129,3.05 -1.129,5.514 0,3.106 -0.122,5.259 -0.366,6.452 -0.247,1.193 -0.575,1.79 -0.99,1.79 -0.301,0 -0.631,-0.294 -0.989,-0.88 -0.357,-0.589 -0.716,-1.307 -1.072,-2.161 -0.359,-0.852 -0.706,-1.754 -1.045,-2.7 -0.339,-0.947 -0.642,-1.781 -0.906,-2.501 -0.753,-2.047 -1.658,-3.772 -2.71,-5.173 -1.056,-1.402 -2.338,-2.104 -3.843,-2.104 -0.829,0 -1.564,0.199 -2.204,0.597 -0.64,0.399 -1.215,0.928 -1.723,1.591 -0.508,0.665 -0.952,1.431 -1.328,2.304 -0.377,0.87 -0.716,1.799 -1.017,2.785 -0.225,0.682 -0.537,1.507 -0.931,2.474 -0.397,0.966 -0.811,1.884 -1.244,2.756 -0.433,0.872 -0.847,1.61 -1.242,2.218 -0.396,0.605 -0.706,0.908 -0.933,0.908 -0.451,0 -0.783,-0.653 -0.988,-1.96 -0.207,-1.308 -0.312,-3.44 -0.312,-6.396 0,-2.579 -0.424,-4.434 -1.271,-5.571 -0.846,-1.137 -1.987,-1.706 -3.419,-1.706 -1.618,0 -2.88,0.549 -3.784,1.648 -0.905,1.099 -1.356,2.976 -1.356,5.629 v 25.241 c 0,0.908 0.094,1.827 0.281,2.756 0.19,0.928 0.546,1.763 1.075,2.5 0.526,0.74 1.27,1.337 2.231,1.792 0.961,0.456 2.233,0.682 3.814,0.682 1.054,0 1.959,-0.123 2.712,-0.37 0.753,-0.247 1.393,-0.549 1.921,-0.908 0.527,-0.362 0.97,-0.749 1.329,-1.166 0.356,-0.418 0.686,-0.815 0.987,-1.194 0.189,-0.228 0.444,-0.777 0.763,-1.648 0.32,-0.872 0.687,-1.904 1.103,-3.099 0.412,-1.194 0.856,-2.445 1.326,-3.752 0.47,-1.307 0.952,-2.521 1.442,-3.638 0.488,-1.118 0.979,-2.038 1.469,-2.758 0.488,-0.72 0.941,-1.079 1.355,-1.079 0.491,0 0.97,0.35 1.442,1.052 0.47,0.7 0.932,1.592 1.384,2.671 0.451,1.081 0.903,2.283 1.355,3.611 0.453,1.325 0.905,2.604 1.356,3.837 0.452,1.231 0.895,2.339 1.328,3.325 0.433,0.985 0.856,1.685 1.271,2.104 0.227,0.226 0.49,0.52 0.791,0.881 0.301,0.359 0.687,0.691 1.159,0.994 0.47,0.303 1.064,0.569 1.779,0.796 0.715,0.227 1.64,0.341 2.77,0.341 1.392,0 2.541,-0.162 3.446,-0.482 m 22.091,0.881 c 1.582,0 3.257,-0.2 5.029,-0.599 1.769,-0.397 3.398,-1.078 4.887,-2.045 1.487,-0.966 2.711,-2.274 3.671,-3.922 0.961,-1.649 1.443,-3.725 1.443,-6.226 0,-1.704 -0.246,-3.202 -0.736,-4.49 -0.49,-1.289 -1.13,-2.388 -1.922,-3.298 -0.791,-0.909 -1.675,-1.669 -2.654,-2.274 -0.98,-0.606 -1.959,-1.079 -2.938,-1.42 -0.98,-0.341 -1.903,-0.579 -2.768,-0.711 -0.867,-0.134 -1.583,-0.2 -2.149,-0.2 -1.317,0 -2.372,-0.114 -3.163,-0.34 -0.791,-0.227 -1.404,-0.673 -1.837,-1.337 -0.432,-0.663 -0.725,-1.583 -0.875,-2.756 -0.152,-1.175 -0.225,-2.729 -0.225,-4.662 0,-1.25 -0.151,-2.283 -0.453,-3.097 -0.301,-0.817 -0.697,-1.478 -1.186,-1.99 -0.49,-0.513 -1.018,-0.872 -1.582,-1.081 -0.566,-0.208 -1.13,-0.312 -1.696,-0.312 -1.694,0 -2.976,0.672 -3.841,2.017 -0.867,1.346 -1.3,3.458 -1.3,6.34 v 24.671 c 0,2.35 0.518,4.225 1.554,5.628 1.035,1.402 2.834,2.104 5.396,2.104 z m -2.146,-9.636 c -0.453,-0.209 -0.812,-0.465 -1.074,-0.767 -0.264,-0.305 -0.444,-0.664 -0.538,-1.081 -0.093,-0.417 -0.14,-0.814 -0.14,-1.193 0,-0.797 0.262,-1.546 0.791,-2.245 0.526,-0.702 1.43,-1.052 2.712,-1.052 0.451,0 0.941,0.065 1.469,0.198 0.526,0.132 0.997,0.331 1.412,0.596 0.414,0.265 0.763,0.608 1.044,1.025 0.284,0.415 0.424,0.908 0.424,1.478 0,0.567 -0.132,1.06 -0.394,1.477 -0.266,0.417 -0.605,0.767 -1.017,1.052 -0.417,0.285 -0.887,0.492 -1.413,0.626 -0.528,0.132 -1.036,0.197 -1.525,0.197 -0.717,0 -1.299,-0.103 -1.751,-0.311 m 28.899,7.589 c 0.883,-1.214 1.326,-3.335 1.326,-6.367 v -15.86 c 0,-0.76 0.132,-1.563 0.397,-2.417 0.263,-0.852 0.658,-1.629 1.186,-2.33 0.527,-0.702 1.195,-1.279 2.006,-1.734 0.81,-0.455 1.761,-0.682 2.853,-0.682 1.206,0 2.222,0.245 3.051,0.738 0.828,0.493 1.505,1.11 2.034,1.848 0.528,0.74 0.904,1.516 1.13,2.33 0.226,0.816 0.338,1.565 0.338,2.247 v 15.86 c 0,2.917 0.386,5.012 1.16,6.281 0.771,1.27 2.061,1.904 3.869,1.904 1.771,0 3.042,-0.634 3.813,-1.904 0.774,-1.269 1.159,-3.382 1.159,-6.337 v -16.999 c 0,-1.781 -0.33,-3.619 -0.987,-5.513 -0.66,-1.896 -1.658,-3.61 -2.996,-5.144 -1.337,-1.536 -3.031,-2.796 -5.084,-3.781 -2.055,-0.985 -4.474,-1.478 -7.262,-1.478 -2.598,0 -4.924,0.446 -6.976,1.335 -2.055,0.89 -3.796,2.076 -5.227,3.554 -1.431,1.477 -2.534,3.173 -3.305,5.086 -0.772,1.915 -1.158,3.895 -1.158,5.941 v 16.999 c 0,2.917 0.358,5.021 1.073,6.308 0.715,1.289 1.939,1.933 3.673,1.933 1.732,0 3.04,-0.605 3.927,-1.818 m 50.595,2.047 c 0.94,0 1.846,-0.085 2.712,-0.256 0.865,-0.172 1.638,-0.437 2.316,-0.796 0.678,-0.361 1.224,-0.845 1.638,-1.45 0.415,-0.606 0.622,-1.364 0.622,-2.274 0,-0.873 -0.169,-1.602 -0.508,-2.189 -0.339,-0.588 -0.792,-1.07 -1.355,-1.449 -0.567,-0.379 -1.188,-0.655 -1.866,-0.825 -0.677,-0.171 -1.355,-0.256 -2.033,-0.256 -0.755,0 -1.424,-0.076 -2.006,-0.227 -0.586,-0.152 -1.083,-0.426 -1.498,-0.825 -0.414,-0.397 -0.735,-0.946 -0.961,-1.648 -0.224,-0.702 -0.338,-1.601 -0.338,-2.7 v -18.361 c 0,-2.426 -0.387,-4.292 -1.159,-5.599 -0.771,-1.308 -2.062,-1.962 -3.87,-1.962 -1.507,0 -2.72,0.634 -3.643,1.903 -0.923,1.27 -1.385,3.156 -1.385,5.658 v 18.248 c 0,1.931 -0.339,3.344 -1.017,4.235 -0.678,0.89 -1.959,1.336 -3.842,1.336 -0.338,0 -0.829,0.065 -1.469,0.198 -0.642,0.132 -1.281,0.37 -1.921,0.711 -0.642,0.34 -1.206,0.825 -1.696,1.45 -0.489,0.626 -0.734,1.429 -0.734,2.416 0,0.91 0.226,1.666 0.678,2.274 0.452,0.605 1.017,1.088 1.696,1.449 0.678,0.36 1.42,0.605 2.232,0.739 0.808,0.133 1.59,0.2 2.344,0.2 z m 18.078,-1.366 c 0.98,-1.098 1.47,-2.841 1.47,-5.229 v -28.026 c 0,-0.72 -0.104,-1.449 -0.311,-2.189 -0.207,-0.738 -0.508,-1.402 -0.904,-1.989 -0.395,-0.588 -0.903,-1.072 -1.526,-1.449 -0.621,-0.379 -1.328,-0.569 -2.119,-0.569 -0.903,0 -1.685,0.19 -2.344,0.569 -0.659,0.377 -1.196,0.861 -1.61,1.449 -0.415,0.587 -0.726,1.251 -0.931,1.989 -0.208,0.74 -0.313,1.469 -0.313,2.189 v 27.855 c 0,2.047 0.415,3.732 1.244,5.059 0.827,1.326 2.071,1.99 3.729,1.99 1.431,0 2.636,-0.55 3.615,-1.649 m 39.579,0.427 c 0.582,-0.247 1.102,-0.626 1.554,-1.138 0.452,-0.511 0.809,-1.164 1.072,-1.96 0.263,-0.796 0.397,-1.762 0.397,-2.9 v -26.207 c 0,-2.841 -0.461,-4.841 -1.384,-5.996 -0.925,-1.157 -2.421,-1.734 -4.492,-1.734 -1.205,0 -2.233,0.114 -3.08,0.341 -0.847,0.227 -1.591,0.568 -2.231,1.023 -0.642,0.455 -1.235,1.031 -1.781,1.734 -0.546,0.701 -1.101,1.506 -1.665,2.417 l -6.103,9.89 c -0.867,1.44 -1.705,2.644 -2.514,3.61 -0.811,0.967 -1.46,1.449 -1.951,1.449 -0.224,-0.076 -0.422,-0.274 -0.592,-0.596 -0.169,-0.323 -0.31,-0.729 -0.424,-1.223 -0.114,-0.493 -0.198,-1.022 -0.254,-1.592 -0.056,-0.567 -0.084,-1.117 -0.084,-1.648 v -8.982 c 0,-1.933 -0.453,-3.467 -1.356,-4.604 -0.905,-1.137 -2.186,-1.705 -3.842,-1.705 -1.582,0 -2.797,0.644 -3.645,1.932 -0.847,1.289 -1.27,2.919 -1.27,4.889 v 26.377 c 0,2.615 0.564,4.492 1.694,5.629 1.13,1.137 2.637,1.704 4.52,1.704 1.355,0 2.552,-0.199 3.588,-0.596 1.035,-0.397 2.118,-1.166 3.248,-2.303 0.529,-0.53 1.139,-1.308 1.836,-2.331 0.697,-1.022 1.423,-2.15 2.176,-3.381 0.753,-1.233 1.525,-2.483 2.316,-3.752 0.792,-1.271 1.544,-2.436 2.26,-3.496 0.716,-1.061 1.384,-1.925 2.006,-2.586 0.622,-0.664 1.139,-0.996 1.554,-0.996 0.565,0 0.978,0.37 1.243,1.108 0.264,0.74 0.395,1.658 0.395,2.758 v 7.787 c 0,0.91 0.065,1.809 0.198,2.7 0.132,0.89 0.377,1.687 0.734,2.388 0.359,0.702 0.866,1.27 1.527,1.707 0.657,0.435 1.497,0.653 2.513,0.653 0.641,0 1.251,-0.124 1.837,-0.37 m 32.431,1.478 c 1.714,-0.284 3.248,-0.709 4.604,-1.279 1.356,-0.568 2.448,-1.251 3.278,-2.046 0.827,-0.796 1.243,-1.706 1.243,-2.729 0,-0.872 -0.169,-1.63 -0.51,-2.274 -0.339,-0.645 -0.763,-1.175 -1.271,-1.592 -0.508,-0.417 -1.072,-0.73 -1.694,-0.937 -0.622,-0.209 -1.215,-0.314 -1.781,-0.314 -0.715,0 -1.422,0.114 -2.117,0.341 -0.698,0.228 -1.413,0.464 -2.149,0.711 -0.733,0.246 -1.507,0.484 -2.316,0.711 -0.811,0.228 -1.685,0.341 -2.627,0.341 -1.168,0 -2.383,-0.247 -3.645,-0.739 -1.261,-0.493 -2.41,-1.233 -3.446,-2.217 -1.036,-0.987 -1.883,-2.209 -2.543,-3.667 -0.658,-1.46 -0.987,-3.155 -0.987,-5.088 0,-2.16 0.375,-3.999 1.13,-5.513 0.753,-1.516 1.684,-2.749 2.797,-3.696 1.11,-0.948 2.316,-1.639 3.615,-2.074 1.3,-0.437 2.514,-0.655 3.644,-0.655 1.921,0 3.438,0.303 4.547,0.91 1.113,0.606 1.668,1.629 1.668,3.071 0,0.832 -0.189,1.477 -0.564,1.931 -0.377,0.455 -0.821,0.825 -1.328,1.11 -0.509,0.284 -1.028,0.52 -1.554,0.711 -0.528,0.188 -0.961,0.435 -1.3,0.737 -0.49,0.417 -0.923,0.873 -1.299,1.366 -0.377,0.491 -0.566,1.249 -0.566,2.274 0,1.44 0.716,2.595 2.148,3.467 1.431,0.87 3.522,1.308 6.271,1.308 1.319,0 2.505,-0.097 3.559,-0.285 1.054,-0.191 1.951,-0.549 2.684,-1.081 0.735,-0.53 1.299,-1.279 1.695,-2.245 0.396,-0.966 0.594,-2.208 0.594,-3.722 v -9.552 c 0,-3.07 -1.413,-5.409 -4.237,-7.019 -2.826,-1.613 -6.97,-2.417 -12.431,-2.417 -2.976,0 -5.762,0.493 -8.361,1.477 -2.599,0.987 -4.869,2.398 -6.809,4.236 -1.941,1.837 -3.466,4.064 -4.576,6.679 -1.112,2.615 -1.667,5.533 -1.667,8.755 0,3.6 0.621,6.737 1.863,9.408 1.244,2.673 2.865,4.898 4.862,6.681 1.995,1.78 4.246,3.117 6.751,4.007 2.502,0.89 5.017,1.336 7.543,1.336 1.807,0 3.568,-0.143 5.282,-0.427"
             style="fill:#ffffff;fill-opacity:1;fill-rule:nonzero;stroke:none"
             id="path96" /></g><g
           id="g98"
           transform="translate(148.6223,39.4028)"><path
             d="M 0,0 H 1.463 L 2.274,3.467 H 5.699 L 6.51,0 H 7.973 L 4.729,12.869 H 3.244 Z M 2.545,4.687 3.987,10.81 5.428,4.687 Z M 14.822,11.58 V 0 h 1.438 v 11.58 h 2.929 v 1.289 H 11.917 V 11.58 Z M 27.029,0 h 1.417 v 5.209 l 3.017,7.66 h -1.485 l -2.23,-6.14 -2.227,6.14 h -1.487 l 2.995,-7.66 z m 10.63,0 h 1.44 v 4.872 h 2.165 c 1.238,0 2.204,0.994 2.204,2.196 v 3.605 c 0,1.201 -0.966,2.196 -2.204,2.196 h -3.605 z m 1.44,6.093 v 5.509 h 1.847 c 0.61,0 1.105,-0.544 1.105,-1.134 V 7.226 c 0,-0.589 -0.495,-1.133 -1.105,-1.133 z M 50.34,0 h 1.461 V 12.869 H 50.34 Z m 8.896,1.969 c 0,-1.2 0.99,-2.197 2.183,-2.197 h 2.051 c 1.217,0 2.206,0.997 2.206,2.197 v 1.902 h -1.417 v -1.63 c 0,-0.59 -0.472,-1.134 -1.105,-1.134 h -1.396 c -0.61,0 -1.105,0.544 -1.105,1.134 v 8.387 c 0,0.589 0.495,1.133 1.105,1.133 h 1.396 c 0.633,0 1.105,-0.544 1.105,-1.133 V 8.95 h 1.417 v 1.926 c 0,1.201 -0.989,2.22 -2.206,2.22 h -2.051 c -1.193,0 -2.183,-1.019 -2.183,-2.22 z M 71.533,0 h 1.464 l 0.811,3.467 H 77.23 L 78.042,0 h 1.465 l -3.244,12.869 h -1.487 z m 2.545,4.687 1.442,6.123 1.442,-6.123 z M 85.701,0 h 5.764 V 1.334 H 87.14 v 11.535 h -1.439 z m 20.181,1.969 c 0,-1.179 0.99,-2.197 2.205,-2.197 h 2.637 c 1.238,0 2.205,1.018 2.205,2.197 v 8.93 c 0,1.202 -0.967,2.197 -2.205,2.197 h -2.637 c -1.215,0 -2.205,-0.995 -2.205,-2.197 z m 1.438,0.272 v 8.387 c 0,0.589 0.498,1.133 1.083,1.133 h 2.006 c 0.607,0 1.103,-0.544 1.103,-1.133 V 2.241 c 0,-0.59 -0.496,-1.134 -1.103,-1.134 h -2.006 c -0.585,0 -1.083,0.544 -1.083,1.134 M 120.251,0 h 1.439 v 4.872 h 2.164 c 1.24,0 2.206,0.994 2.206,2.196 v 3.605 c 0,1.201 -0.966,2.196 -2.206,2.196 h -3.603 z m 1.439,6.093 v 5.509 h 1.849 c 0.609,0 1.105,-0.544 1.105,-1.134 V 7.226 c 0,-0.589 -0.496,-1.133 -1.105,-1.133 z M 132.819,0 h 5.652 v 1.355 h -4.212 v 4.582 h 3.04 v 1.22 h -3.04 v 4.423 h 4.076 v 1.289 h -5.516 z m 12.524,0 h 1.439 v 10.015 l 4.011,-6.459 V 0 h 1.439 v 12.869 h -1.439 V 5.867 l -4.348,7.002 h -1.102 z m 22.545,1.969 c 0,-1.2 0.989,-2.197 2.204,-2.197 h 1.94 c 1.217,0 2.206,0.997 2.206,2.197 v 2.719 c 0,0.862 -0.518,1.678 -1.326,1.927 l -2.931,0.93 c -0.405,0.136 -0.676,0.611 -0.676,1.043 v 2.04 c 0,0.589 0.495,1.133 1.105,1.133 h 1.328 c 0.633,0 1.129,-0.544 1.129,-1.133 V 9.223 h 1.371 v 1.675 c 0,1.201 -0.989,2.198 -2.206,2.198 h -1.94 c -1.193,0 -2.204,-0.997 -2.204,-2.198 V 8.406 c 0,-0.861 0.539,-1.677 1.349,-1.926 l 2.908,-0.93 c 0.406,-0.136 0.676,-0.589 0.676,-1.021 V 2.241 c 0,-0.59 -0.495,-1.134 -1.105,-1.134 h -1.33 c -0.609,0 -1.126,0.544 -1.126,1.134 v 1.427 h -1.372 z m 13.358,0 c 0,-1.179 0.987,-2.197 2.204,-2.197 h 2.636 c 1.239,0 2.206,1.018 2.206,2.197 v 8.93 c 0,1.202 -0.967,2.197 -2.206,2.197 h -2.636 c -1.217,0 -2.204,-0.995 -2.204,-2.197 z m 1.437,0.272 v 8.387 c 0,0.589 0.496,1.133 1.082,1.133 h 2.006 c 0.609,0 1.104,-0.544 1.104,-1.133 V 2.241 c 0,-0.59 -0.495,-1.134 -1.104,-1.134 h -2.006 c -0.586,0 -1.082,0.544 -1.082,1.134 m 12.818,-0.272 c 0,-1.2 0.99,-2.197 2.183,-2.197 h 2.21 c 1.214,0 2.204,0.997 2.204,2.197 v 10.9 H 200.66 V 2.241 c 0,-0.59 -0.474,-1.134 -1.081,-1.134 h -1.556 c -0.609,0 -1.105,0.544 -1.105,1.134 v 10.628 h -1.417 z M 209.534,0 h 1.415 v 5.028 h 0.677 L 214.622,0 h 1.575 l -3.105,5.143 h 0.495 c 0.99,0.157 1.754,1.042 1.754,2.085 v 3.445 c 0,1.201 -0.989,2.196 -2.204,2.196 h -3.603 z m 1.415,6.23 v 5.372 h 1.849 c 0.631,0 1.105,-0.544 1.105,-1.134 V 7.363 c 0,-0.589 -0.474,-1.133 -1.105,-1.133 z m 11.444,-4.261 c 0,-1.2 0.99,-2.197 2.183,-2.197 h 2.051 c 1.216,0 2.206,0.997 2.206,2.197 v 1.902 h -1.416 v -1.63 c 0,-0.59 -0.474,-1.134 -1.105,-1.134 h -1.397 c -0.609,0 -1.105,0.544 -1.105,1.134 v 8.387 c 0,0.589 0.496,1.133 1.105,1.133 h 1.397 c 0.631,0 1.105,-0.544 1.105,-1.133 V 8.95 h 1.416 v 1.926 c 0,1.201 -0.99,2.22 -2.206,2.22 h -2.051 c -1.193,0 -2.183,-1.019 -2.183,-2.22 z M 236.042,0 h 5.651 v 1.355 h -4.212 v 4.582 h 3.04 v 1.22 h -3.04 v 4.423 h 4.076 v 1.289 h -5.515 z m 20.745,1.969 c 0,-1.2 0.988,-2.197 2.204,-2.197 h 2.03 c 1.216,0 2.204,0.997 2.204,2.197 v 3.987 h -2.768 V 4.781 h 1.375 v -2.54 c 0,-0.59 -0.496,-1.134 -1.105,-1.134 h -1.421 c -0.585,0 -1.081,0.544 -1.081,1.134 v 8.387 c 0,0.589 0.496,1.133 1.081,1.133 h 1.421 c 0.609,0 1.105,-0.544 1.105,-1.133 V 8.974 h 1.393 v 1.924 c 0,1.201 -0.988,2.198 -2.204,2.198 h -2.03 c -1.216,0 -2.204,-0.997 -2.204,-2.198 z m 13.649,0 c 0,-1.2 0.987,-2.197 2.183,-2.197 h 2.208 c 1.215,0 2.206,0.997 2.206,2.197 v 10.9 h -1.439 V 2.241 c 0,-0.59 -0.474,-1.134 -1.083,-1.134 h -1.555 c -0.608,0 -1.105,0.544 -1.105,1.134 v 10.628 h -1.415 z M 284.466,0 h 1.417 v 5.028 h 0.676 L 289.556,0 h 1.575 l -3.106,5.143 h 0.495 c 0.991,0.157 1.756,1.042 1.756,2.085 v 3.445 c 0,1.201 -0.99,2.196 -2.206,2.196 h -3.604 z m 1.417,6.23 v 5.372 h 1.85 c 0.631,0 1.104,-0.544 1.104,-1.134 V 7.363 c 0,-0.589 -0.473,-1.133 -1.104,-1.133 z M 297.44,1.969 c 0,-1.2 0.989,-2.197 2.183,-2.197 h 2.209 c 1.216,0 2.205,0.997 2.205,2.197 v 10.9 h -1.439 V 2.241 c 0,-0.59 -0.474,-1.134 -1.082,-1.134 h -1.555 c -0.609,0 -1.105,0.544 -1.105,1.134 v 10.628 h -1.416 z m 13.693,0 c 0,-1.2 0.991,-2.197 2.206,-2.197 h 1.938 c 1.217,0 2.206,0.997 2.206,2.197 v 2.719 c 0,0.862 -0.517,1.678 -1.326,1.927 l -2.931,0.93 c -0.405,0.136 -0.676,0.611 -0.676,1.043 v 2.04 c 0,0.589 0.496,1.133 1.105,1.133 h 1.33 c 0.631,0 1.127,-0.544 1.127,-1.133 V 9.223 h 1.371 v 1.675 c 0,1.201 -0.989,2.198 -2.206,2.198 h -1.938 c -1.192,0 -2.206,-0.997 -2.206,-2.198 V 8.406 c 0,-0.861 0.541,-1.677 1.351,-1.926 l 2.907,-0.93 c 0.405,-0.136 0.676,-0.589 0.676,-1.021 V 2.241 c 0,-0.59 -0.496,-1.134 -1.106,-1.134 h -1.33 c -0.607,0 -1.126,0.544 -1.126,1.134 v 1.427 h -1.372 z"
             style="fill:#ffffff;fill-opacity:1;fill-rule:nonzero;stroke:none"
             id="path100" /></g><g
           id="g102"
           transform="translate(79.3015,41.1489)"><path
             d="M 0,0 C 23.967,0 43.397,19.548 43.397,43.664 43.397,67.778 23.967,87.329 0,87.329 -23.967,87.329 -43.398,67.778 -43.398,43.664 -43.398,19.548 -23.967,0 0,0"
             style="fill:#ffffff;fill-opacity:1;fill-rule:nonzero;stroke:none"
             id="path104" /></g><g
           id="g106"
           transform="translate(85.4524,72.6088)"><path
             d="m 0,0 -15.713,29.781 c 0.792,-1.603 0.842,-3.549 -0.056,-5.25 l -5.048,-9.567 10.736,-20.348 c 1.026,-1.944 3.001,-3.052 5.045,-3.052 0.903,0 1.819,0.217 2.671,0.673 C 0.418,-6.276 1.478,-2.802 0,0"
             style="fill:#9ec9ed;fill-opacity:1;fill-rule:nonzero;stroke:none"
             id="path108" /></g><g
           id="g110"
           transform="translate(61.9636,104.8808)"><path
             d="M 0,0 C 2.787,1.487 6.24,0.42 7.716,-2.379 L 7.775,-2.492 C 7.264,-1.456 6.449,-0.561 5.355,0.023 2.574,1.51 -0.883,0.444 -2.361,-2.355 L -18.133,-32.25 c -1.478,-2.799 -0.418,-6.275 2.365,-7.762 0.852,-0.455 1.768,-0.671 2.671,-0.671 2.044,0 4.021,1.108 5.044,3.05 l 10.724,20.326 -5.035,9.544 C -3.842,-4.963 -2.783,-1.487 0,0"
             style="fill:#3199cc;fill-opacity:1;fill-rule:nonzero;stroke:none"
             id="path112" /></g><g
           id="g114"
           transform="translate(69.739,102.3896)"><path
             d="m 0,0 -0.06,0.112 c -1.478,2.801 -4.929,3.867 -7.715,2.38 -2.783,-1.487 -3.843,-4.964 -2.365,-7.765 l 5.036,-9.544 5.048,9.567 C 0.842,-3.547 0.793,-1.603 0,0"
             style="fill:#3c63ad;fill-opacity:1;fill-rule:nonzero;stroke:none"
             id="path116" /></g><g
           id="g118"
           transform="translate(109.7727,105.5747)"><path
             d="m 0,0 h -11.041 c 3.152,0 5.708,-2.571 5.708,-5.741 v -5.743 H 0 c 3.152,0 5.706,2.571 5.706,5.743 C 5.706,-2.571 3.152,0 0,0"
             style="fill:#3199cc;fill-opacity:1;fill-rule:nonzero;stroke:none"
             id="path120" /></g><g
           id="g122"
           transform="translate(98.7322,105.5747)"><path
             d="m 0,0 h -11.039 c -3.152,0 -5.706,-2.571 -5.706,-5.741 0,-3.172 2.554,-5.743 5.706,-5.743 h 5.333 v 5.743 C -5.706,-2.571 -3.152,0 0,0"
             style="fill:#3199cc;fill-opacity:1;fill-rule:nonzero;stroke:none"
             id="path124" /></g><g
           id="g126"
           transform="translate(93.0257,69.7685)"><path
             d="m 0,0 c 0,-3.171 2.556,-5.741 5.706,-5.741 3.152,0 5.708,2.57 5.708,5.741 V 24.323 H 0 Z"
             style="fill:#3199cc;fill-opacity:1;fill-rule:nonzero;stroke:none"
             id="path128" /></g><g
           id="g130"
           transform="translate(98.7322,105.5747)"><path
             d="m 0,0 c -3.152,0 -5.706,-2.571 -5.706,-5.741 v -5.743 H 5.706 v 5.743 C 5.706,-2.571 3.152,0 0,0"
             style="fill:#3c63ad;fill-opacity:1;fill-rule:nonzero;stroke:none"
             id="path132" /></g></g></g></g></svg>
